<svg width="48" height="48" viewBox="0 0 48 48" fill="none" xmlns="http://www.w3.org/2000/svg">
<path d="M38.0193 23.3509H38.0122C26.0026 23.2197 24.7636 19.3816 24.6522 9.98898C24.6503 9.80786 24.7245 9.63442 24.8577 9.51154C24.9908 9.38802 25.1713 9.32978 25.3505 9.34386C32.4186 9.9877 38.0141 15.5851 38.6567 22.6527C38.6727 22.8331 38.6119 23.0117 38.489 23.1448C38.3681 23.276 38.1978 23.3509 38.0193 23.3509Z" fill="white"/>
<path d="M24.6529 38.0107C24.7642 28.618 26.0026 24.78 38.0122 24.6488C38.1933 24.6558 38.3655 24.7217 38.489 24.8548C38.6125 24.988 38.6727 25.1665 38.6567 25.347C38.0148 32.4152 32.4193 38.012 25.3511 38.6558C25.3319 38.6577 25.3121 38.6584 25.2929 38.6584C25.1329 38.6584 24.9773 38.5976 24.8583 38.4881C24.7252 38.3652 24.6509 38.1918 24.6529 38.0107Z" fill="white"/>
<path d="M22.6067 9.34696C15.561 10.0094 9.98337 15.6055 9.34401 22.6538C9.32801 22.8343 9.38817 23.0129 9.51169 23.146C9.63265 23.2772 9.80353 23.3514 9.98145 23.3514H9.98913C21.959 23.2138 23.1949 19.3777 23.3075 9.99144C23.3094 9.81032 23.2346 9.63624 23.1014 9.51336C22.967 9.39048 22.7872 9.33032 22.6067 9.34696Z" fill="white"/>
<path d="M9.51102 24.8536C9.63326 24.7205 9.78942 24.6257 9.98846 24.6481C21.959 24.7857 23.1942 28.6219 23.3069 38.0075C23.3088 38.1886 23.2339 38.3627 23.1008 38.4856C22.9817 38.595 22.8269 38.6552 22.6669 38.6552C22.647 38.6552 22.6265 38.6545 22.6067 38.6526C15.5609 37.9902 9.9827 32.3941 9.34334 25.3457C9.32734 25.1653 9.38814 24.9867 9.51102 24.8536Z" fill="white"/>
</svg>
