<svg width="48" height="48" viewBox="0 0 48 48" fill="none" xmlns="http://www.w3.org/2000/svg">
<path d="M11.0514 23.2051L27.729 16.477C29.3753 15.7762 34.9585 13.5336 34.9585 13.5336C34.9585 13.5336 37.5354 12.5525 37.3205 14.9352C37.2489 15.9162 36.6766 19.3505 36.1037 23.0646L34.3144 34.0676C34.3144 34.0676 34.1712 35.6795 32.9523 35.9598C31.7334 36.2401 29.7313 34.9787 29.3736 34.6983C29.0874 34.4881 24.0053 31.3343 22.1442 29.7925C21.6431 29.3722 21.0706 28.5309 22.2158 27.5499C24.7926 25.2371 27.8706 22.3636 29.7313 20.5415C30.5903 19.7005 31.4492 17.7381 27.8704 20.1212L17.778 26.7792C17.778 26.7792 16.6326 27.48 14.4854 26.8493C12.3382 26.2186 9.83295 25.3776 9.83295 25.3776C9.83295 25.3776 8.11504 24.3264 11.0498 23.2053L11.0514 23.2051Z" fill="white"/>
</svg>
