<svg width="32" height="32" viewBox="0 0 32 32" fill="none" xmlns="http://www.w3.org/2000/svg">
<path d="M17.3278 25.1812C7.69839 25.1812 2.20792 18.5927 1.98267 7.61173H6.82554C6.9804 15.6644 10.5281 19.0713 13.3437 19.7752V7.61173H17.891V14.5523C20.6643 14.2566 23.5926 11.089 24.5781 7.59766H29.1112C28.7416 9.40496 28.0032 11.1166 26.9423 12.6257C25.8813 14.1348 24.5206 15.4089 22.945 16.3683C24.7033 17.2435 26.256 18.4814 27.5009 20.0005C28.7458 21.5196 29.6545 23.2853 30.1671 25.1812H25.1694C24.0994 21.8447 21.4246 19.2543 17.891 18.9024V25.1812H17.3419H17.3278Z" fill="white"/>
</svg>
