<svg width="48" height="48" viewBox="0 0 48 48" fill="none" xmlns="http://www.w3.org/2000/svg">
<path fill-rule="evenodd" clip-rule="evenodd" d="M10.9626 15.2157C9.48601 16.7197 9.44145 18.6152 9.35234 22.4062C9.34007 22.9279 9.33325 23.4606 9.33325 24.0002C9.33325 24.5397 9.34007 25.0724 9.35234 25.5941C9.44145 29.3851 9.48601 31.2806 10.9626 32.7846C12.4391 34.2886 14.4319 34.3721 18.4173 34.5392C20.2133 34.6145 22.1328 34.6668 23.9999 34.6668C25.8671 34.6668 27.7865 34.6145 29.5825 34.5392C33.568 34.3721 35.5607 34.2886 37.0373 32.7846C38.5138 31.2806 38.5584 29.3851 38.6475 25.5941C38.6598 25.0724 38.6666 24.5397 38.6666 24.0002C38.6666 23.4606 38.6598 22.9279 38.6475 22.4062C38.5584 18.6152 38.5138 16.7197 37.0373 15.2157C35.5607 13.7117 33.568 13.6282 29.5825 13.4611C27.7865 13.3858 25.8671 13.3335 23.9999 13.3335C22.1328 13.3335 20.2133 13.3858 18.4173 13.4611C14.4319 13.6282 12.4391 13.7117 10.9626 15.2157ZM19.9999 29.3335L29.3333 24.0002L19.9999 18.6668V29.3335Z" fill="white"/>
</svg>
